<svg width="128" height="128" viewBox="0 0 128 128" fill="none" xmlns="http://www.w3.org/2000/svg">
  <rect width="128" height="128" rx="20" fill="url(#gradient128)"/>
  
  <!-- Main card background -->
  <rect x="20" y="28" width="88" height="72" rx="8" fill="white" fill-opacity="0.95" stroke="url(#strokeGradient)" stroke-width="1"/>
  
  <!-- Profile circle -->
  <circle cx="64" cy="52" r="12" fill="url(#gradient128)"/>
  <circle cx="64" cy="52" r="10" fill="white" fill-opacity="0.2"/>
  <circle cx="64" cy="52" r="8" fill="url(#gradient128)"/>
  
  <!-- Name lines -->
  <rect x="44" y="72" width="40" height="3" rx="1.5" fill="url(#gradient128)"/>
  <rect x="50" y="78" width="28" height="2" rx="1" fill="url(#gradient128)" fill-opacity="0.7"/>
  
  <!-- Decorative elements -->
  <rect x="28" y="36" width="4" height="2" rx="1" fill="url(#gradient128)" fill-opacity="0.4"/>
  <rect x="96" y="36" width="4" height="2" rx="1" fill="url(#gradient128)" fill-opacity="0.4"/>
  <rect x="28" y="88" width="6" height="2" rx="1" fill="url(#gradient128)" fill-opacity="0.4"/>
  <rect x="94" y="88" width="6" height="2" rx="1" fill="url(#gradient128)" fill-opacity="0.4"/>
  
  <!-- Corner decorations -->
  <circle cx="32" cy="40" r="2" fill="white" fill-opacity="0.3"/>
  <circle cx="96" cy="40" r="2" fill="white" fill-opacity="0.3"/>
  <circle cx="32" cy="84" r="2" fill="white" fill-opacity="0.3"/>
  <circle cx="96" cy="84" r="2" fill="white" fill-opacity="0.3"/>
  
  <!-- Security badge -->
  <rect x="84" y="32" width="16" height="12" rx="2" fill="url(#badgeGradient)"/>
  <path d="M92 36L90 38L94 42" stroke="white" stroke-width="1.5" stroke-linecap="round" stroke-linejoin="round"/>
  
  <defs>
    <linearGradient id="gradient128" x1="0" y1="0" x2="128" y2="128" gradientUnits="userSpaceOnUse">
      <stop stop-color="#667eea"/>
      <stop offset="0.3" stop-color="#764ba2"/>
      <stop offset="0.7" stop-color="#5a67d8"/>
      <stop offset="1" stop-color="#4c51bf"/>
    </linearGradient>
    
    <linearGradient id="strokeGradient" x1="20" y1="28" x2="108" y2="100" gradientUnits="userSpaceOnUse">
      <stop stop-color="#667eea" stop-opacity="0.3"/>
      <stop offset="1" stop-color="#764ba2" stop-opacity="0.3"/>
    </linearGradient>
    
    <linearGradient id="badgeGradient" x1="84" y1="32" x2="100" y2="44" gradientUnits="userSpaceOnUse">
      <stop stop-color="#10b981"/>
      <stop offset="1" stop-color="#059669"/>
    </linearGradient>
  </defs>
</svg>